<svg width="25" height="24" viewBox="0 0 25 24" fill="none" xmlns="http://www.w3.org/2000/svg">
<path d="M12.5 6V4M12.5 6C11.9696 6 11.4609 6.21071 11.0858 6.58579C10.7107 6.96086 10.5 7.46957 10.5 8C10.5 8.53043 10.7107 9.03914 11.0858 9.41421C11.4609 9.78929 11.9696 10 12.5 10M12.5 6C13.0304 6 13.5391 6.21071 13.9142 6.58579C14.2893 6.96086 14.5 7.46957 14.5 8C14.5 8.53043 14.2893 9.03914 13.9142 9.41421C13.5391 9.78929 13.0304 10 12.5 10M12.5 10V20M6.5 18C7.03043 18 7.53914 17.7893 7.91421 17.4142C8.28929 17.0391 8.5 16.5304 8.5 16C8.5 15.4696 8.28929 14.9609 7.91421 14.5858C7.53914 14.2107 7.03043 14 6.5 14M6.5 18C5.96957 18 5.46086 17.7893 5.08579 17.4142C4.71071 17.0391 4.5 16.5304 4.5 16C4.5 15.4696 4.71071 14.9609 5.08579 14.5858C5.46086 14.2107 5.96957 14 6.5 14M6.5 18V20M6.5 14V4M18.5 18C19.0304 18 19.5391 17.7893 19.9142 17.4142C20.2893 17.0391 20.5 16.5304 20.5 16C20.5 15.4696 20.2893 14.9609 19.9142 14.5858C19.5391 14.2107 19.0304 14 18.5 14M18.5 18C17.9696 18 17.4609 17.7893 17.0858 17.4142C16.7107 17.0391 16.5 16.5304 16.5 16C16.5 15.4696 16.7107 14.9609 17.0858 14.5858C17.4609 14.2107 17.9696 14 18.5 14M18.5 18V20M18.5 14V4" stroke="currentColor" stroke-width="2" stroke-linecap="round" stroke-linejoin="round"/>
</svg>
