<svg width="24" height="25" viewBox="0 0 24 25" fill="none" xmlns="http://www.w3.org/2000/svg">
<path d="M11.7188 3.30493C6.90234 3.30493 3 7.24243 3 12.0237C3 16.8401 6.90234 20.7424 11.7188 20.7424C16.5 20.7424 20.4375 16.8401 20.4375 12.0237C20.4375 7.24243 16.5 3.30493 11.7188 3.30493ZM17.4492 7.3479C18.5039 8.61353 19.1367 10.2307 19.1367 11.9885C18.8906 11.9182 16.4297 11.426 13.9688 11.7424C13.7578 11.2502 13.582 10.8284 13.3008 10.2659C16.0781 9.14087 17.3086 7.55884 17.4492 7.3479ZM16.6406 6.46899C16.5 6.67993 15.375 8.19165 12.7383 9.17603C11.5078 6.92603 10.1719 5.0979 9.96094 4.81665C12.3164 4.25415 14.8125 4.85181 16.6406 6.46899ZM8.51953 5.30884C8.73047 5.59009 10.0664 7.41821 11.2969 9.63306C7.81641 10.5471 4.75781 10.5471 4.40625 10.512C4.89844 8.22681 6.44531 6.29321 8.51953 5.30884ZM4.26562 12.0588C4.26562 11.9885 4.26562 11.9182 4.26562 11.8127C4.58203 11.8479 8.20312 11.8831 11.8945 10.7581C12.1406 11.1799 12.3164 11.6018 12.5273 12.0237C9.82031 12.7971 7.35938 14.9768 6.16406 17.0159C4.96875 15.7151 4.26562 13.9573 4.26562 12.0588ZM7.11328 17.9299C7.92188 16.3479 10.0312 14.2737 13.0195 13.2542C14.0742 15.9612 14.4961 18.2463 14.6016 18.9143C12.2109 19.9338 9.32812 19.6526 7.11328 17.9299ZM15.8672 18.2112C15.7969 17.7893 15.375 15.6096 14.4258 12.9026C16.7461 12.551 18.7852 13.1487 19.0664 13.219C18.7148 15.2932 17.5195 17.0862 15.8672 18.2112Z" fill="currentColor"/>
</svg>
