<svg width="25" height="24" viewBox="0 0 25 24" fill="none" xmlns="http://www.w3.org/2000/svg">
<path d="M3.555 11H5.5C6.03043 11 6.53914 11.2107 6.91421 11.5858C7.28929 11.9609 7.5 12.4696 7.5 13V14C7.5 14.5304 7.71071 15.0391 8.08579 15.4142C8.46086 15.7893 8.96957 16 9.5 16C10.0304 16 10.5391 16.2107 10.9142 16.5858C11.2893 16.9609 11.5 17.4696 11.5 18V20.945M8.5 3.935V5.5C8.5 6.16304 8.76339 6.79893 9.23223 7.26777C9.70107 7.73661 10.337 8 11 8H11.5C12.0304 8 12.5391 8.21071 12.9142 8.58579C13.2893 8.96086 13.5 9.46957 13.5 10C13.5 10.5304 13.7107 11.0391 14.0858 11.4142C14.4609 11.7893 14.9696 12 15.5 12C16.0304 12 16.5391 11.7893 16.9142 11.4142C17.2893 11.0391 17.5 10.5304 17.5 10C17.5 9.46957 17.7107 8.96086 18.0858 8.58579C18.4609 8.21071 18.9696 8 19.5 8H20.564M15.5 20.488V18C15.5 17.4696 15.7107 16.9609 16.0858 16.5858C16.4609 16.2107 16.9696 16 17.5 16H20.564M21.5 12C21.5 13.1819 21.2672 14.3522 20.8149 15.4442C20.3626 16.5361 19.6997 17.5282 18.864 18.364C18.0282 19.1997 17.0361 19.8626 15.9442 20.3149C14.8522 20.7672 13.6819 21 12.5 21C11.3181 21 10.1478 20.7672 9.05585 20.3149C7.96392 19.8626 6.97177 19.1997 6.13604 18.364C5.30031 17.5282 4.63738 16.5361 4.18508 15.4442C3.73279 14.3522 3.5 13.1819 3.5 12C3.5 9.61305 4.44821 7.32387 6.13604 5.63604C7.82387 3.94821 10.1131 3 12.5 3C14.8869 3 17.1761 3.94821 18.864 5.63604C20.5518 7.32387 21.5 9.61305 21.5 12Z" stroke="#111827" stroke-width="2" stroke-linecap="round" stroke-linejoin="round"/>
</svg>
