<svg width="35" height="35" viewBox="0 0 35 35" fill="none" xmlns="http://www.w3.org/2000/svg">
<g clip-path="url(#clip0_36133_168)">
<path d="M13.2283 17.5C13.2283 18.5438 12.8129 19.5435 12.0752 20.2809L6.71443 25.6407C6.6244 25.7307 6.53279 25.816 6.43486 25.895C6.20109 26.0892 5.94679 26.2519 5.68144 26.3829C5.13178 26.6561 4.53157 26.7919 3.93294 26.7919C2.9268 26.7919 1.91908 26.4082 1.15145 25.6391C-0.383817 24.1042 -0.383817 21.6138 1.15145 20.0772L3.72918 17.5L1.15145 14.9212C-0.383817 13.3862 -0.383817 10.8958 1.15145 9.35928C2.37556 8.13541 4.21093 7.8859 5.68144 8.61706C5.94995 8.74972 6.20583 8.91395 6.44276 9.10977C6.53595 9.18873 6.62756 9.27085 6.71443 9.3577L6.93082 9.57405L12.0752 14.7175C12.8144 15.4565 13.2283 16.4577 13.2283 17.5Z" fill="#1F2937"/>
<path d="M13.2282 17.5C13.2282 18.5438 12.8128 19.5435 12.0752 20.2809L6.71441 25.6407C6.62438 25.7307 6.53277 25.816 6.43484 25.8949C6.20108 26.0892 5.94678 26.2518 5.68143 26.3829C5.30709 26.1982 4.95802 25.9502 4.64686 25.6391C3.11159 24.1041 3.11159 21.6138 4.64686 20.0772L7.22459 17.5L4.64844 14.9212C3.11317 13.3862 3.11317 10.8958 4.64844 9.35928C4.9596 9.04818 5.30867 8.80183 5.68143 8.61707C5.94994 8.74972 6.20582 8.91395 6.44274 9.10977C6.53593 9.18873 6.62754 9.27085 6.71441 9.3577L6.9308 9.57405L12.0752 14.7175C12.8144 15.4565 13.2282 16.4577 13.2282 17.5Z" fill="#1F2937"/>
<path d="M35 17.4999C35 26.6134 27.5843 34.0277 18.469 34.0277H10.5794C8.50714 34.0277 6.8076 32.4248 6.65755 30.3893C6.64807 30.2929 6.64491 30.195 6.64491 30.094C6.64491 27.9226 8.40605 26.1602 10.5794 26.1602H18.4706C23.247 26.1602 27.1341 22.2754 27.1341 17.4984C27.1341 12.7229 23.247 8.83652 18.4706 8.83652H10.5794C8.40763 8.83652 6.64491 7.07573 6.64491 4.90276C6.64491 4.80328 6.64807 4.70379 6.65755 4.60746C6.8076 2.57504 8.50556 0.972168 10.5794 0.972168H18.4706C27.5858 0.972168 35 8.38645 35 17.4999Z" fill="#1F2937"/>
<path d="M6.93078 9.5772C6.7523 9.44139 6.58803 9.28347 6.44272 9.11292C6.53591 9.19187 6.62752 9.27399 6.71439 9.36085L6.93078 9.5772Z" fill="#1F2937"/>
<path d="M6.71441 25.6406C6.62438 25.7306 6.53277 25.8159 6.43484 25.8949C6.5849 25.7164 6.75548 25.5554 6.9387 25.4164L6.71441 25.6406Z" fill="#1F2937"/>
<path d="M29.347 17.4999C29.347 25.1163 23.1506 31.3099 15.5343 31.3099H8.93834C8.05067 31.3099 7.24829 30.9593 6.65598 30.3892C6.6465 30.2929 6.64334 30.195 6.64334 30.0939C6.64334 27.9225 8.40448 26.1602 10.5779 26.1602H18.469C23.2454 26.1602 27.1325 22.2754 27.1325 17.4983C27.1325 12.7229 23.2454 8.8365 18.469 8.8365H10.5794C8.40764 8.8365 6.64492 7.0757 6.64492 4.90274C6.64492 4.80325 6.64808 4.70376 6.65756 4.60743C7.24987 4.03735 8.05225 3.68677 8.93992 3.68677H15.5343C23.1506 3.68993 29.347 9.8835 29.347 17.4999Z" fill="#1F2937"/>
</g>
<defs>
<clipPath id="clip0_36133_168">
<rect width="35" height="33.0555" fill="white" transform="translate(0 0.972168)"/>
</clipPath>
</defs>
</svg>
