<svg width="24" height="25" viewBox="0 0 24 25" fill="none" xmlns="http://www.w3.org/2000/svg">
<path d="M19.1367 8.92603C19.8398 8.39868 20.4727 7.76587 20.9648 7.02759C20.332 7.30884 19.5938 7.51978 18.8555 7.59009C19.6289 7.13306 20.1914 6.42993 20.4727 5.55103C19.7695 5.9729 18.9609 6.28931 18.1523 6.46509C17.4492 5.72681 16.5 5.30493 15.4453 5.30493C13.4062 5.30493 11.7539 6.95728 11.7539 8.99634C11.7539 9.27759 11.7891 9.55884 11.8594 9.84009C8.80078 9.66431 6.05859 8.18774 4.23047 5.9729C3.91406 6.50024 3.73828 7.13306 3.73828 7.83618C3.73828 9.10181 4.37109 10.2268 5.39062 10.8948C4.79297 10.8596 4.19531 10.719 3.70312 10.4377V10.4729C3.70312 12.2659 4.96875 13.7424 6.65625 14.094C6.375 14.1643 6.02344 14.2346 5.70703 14.2346C5.46094 14.2346 5.25 14.1995 5.00391 14.1643C5.46094 15.6409 6.83203 16.6956 8.44922 16.7307C7.18359 17.7151 5.60156 18.3127 3.87891 18.3127C3.5625 18.3127 3.28125 18.2776 3 18.2424C4.61719 19.2971 6.55078 19.8948 8.66016 19.8948C15.4453 19.8948 19.1367 14.3049 19.1367 9.41821C19.1367 9.24243 19.1367 9.10181 19.1367 8.92603Z" fill="#111827"/>
</svg>
